<svg xmlns:xlink="http://www.w3.org/1999/xlink" viewBox="0 0 128 128"><defs><radialGradient xlink:href="#a" id="d" cx="86" cy="218" r="20" fx="86" fy="218" gradientUnits="userSpaceOnUse"/><radialGradient xlink:href="#b" id="c" cx="30.5" cy="197.7" r="31.3" fx="30.5" fy="197.7" gradientTransform="matrix(1.50912 0 0 2.10236 -15.525 -227.004)" gradientUnits="userSpaceOnUse"/><linearGradient id="b"><stop offset="0" stop-color="#8c839c"/><stop offset="1" stop-color="#3d3846"/></linearGradient><linearGradient id="a"><stop offset="0" stop-color="#fff"/><stop offset="1" stop-color="#fff" stop-opacity="0"/></linearGradient></defs><g transform="translate(0 -172)"><path d="M32.2 181v9.2L25 196l-3.5 3-13 7.3-.3 3.6 4.8 9.5 11.6-4a10 10 0 0 0 7.6 3.8 10 10 0 0 0 9.7-9l.3 9.2c0 4.7-3.1 8.2-7.6 9.3-4 1-5.3-.3-10.2 1.7C17.8 233 13 237 12.5 244v4l10 10c-4.6 0-10.5 6-10.5 6v4h58v-4s1-6-9.7-6l10.4-10.2v-28.6A29 29 0 0 0 42 190.4h-.5l-.3-2.3a9 9 0 0 0-9-7.2" style="marker:none"/><path fill="url(#c)" d="M32 178v9.3l-23.5 19 4.7 9.5 11.6-4a10 10 0 0 0 7.7 3.8c5 0 9.1-4 9.5-9.1v9.3a9 9 0 0 1-7.2 9.3c-4 1-5.3-.3-10.1 1.7-7.4 3-12.2 9.2-12.2 17.2l10.2 10.4c-5.6 0-10.7 4.2-10.7 9.6h58c0-6-4.5-9.6-9.5-9.6L71 244.2v-28.6c0-16-13-28-28.8-28h-.5l-.2-2.4a10 10 0 0 0-9.5-7.1" style="marker:none"/><path fill="#fff" fill-opacity=".1" d="M32.5 177.3v3a9 9 0 0 1 5 6.2l.2 2.3h.5A28.7 28.7 0 0 1 67 217.6v28.6l-6.5 8.2L71 244.2v-28.6a28.7 28.7 0 0 0-28.8-28.8h-.5l-.2-2.3a9 9 0 0 0-9-7.2m-14.6 78.3-1.7 1.1 2.5-.3z" style="marker:none"/><path fill="#9a9996" d="M85.8 206.4a22 22 0 0 0-22 22.3 22 22 0 0 0 15.2 21l-6 27.7-17 6.3v4.4l60 .1V284l-17.5-6.6-5.6-27.6a22 22 0 0 0 15.2-21.1c0-12.3-10-22.3-22.3-22.3" style="marker:none"/><path fill="#deddda" d="M86 202a22 22 0 0 0-22.1 22.2 22 22 0 0 0 15 21L64 276c-3.7 0-8 4.2-8 8h60c0-3.7-4.3-8-8-8l-15-30.9a22 22 0 0 0 15.1-20.9c0-12.2-9.9-22.1-22.1-22.1" style="marker:none"/><circle cx="86" cy="224" r="20" fill="url(#d)" style="marker:none"/><path fill="#f6f5f4" d="M116 284c0-3.5-4.2-6-8-6H64c-4.3 0-8 2.1-8 6 0-3.9 4-8 8-8h44c4.2 0 8 4 8 8" style="marker:none"/><path fill="#c0bfbc" d="m64.1 224-.1 2a22 22 0 0 0 22 22 22 22 0 0 0 22-22l-.1-1.9a22 22 0 0 1-21.9 20 22 22 0 0 1-21.9-20" style="marker:none"/></g></svg>