<svg viewBox="0 0 1000 1000"><path d="M55 228c0-36 30-66 66-66s66 30 66 66c0 10-3 29-18 45l120 232V243c-25-5-51-25-51-64 0-36 29-65 65-65s65 29 65 65c0 24-7 37-28 54l91 262 38-282c-17-9-34-25-34-59 0-36 29-65 65-65s65 29 65 65c0 34-17 50-34 59l38 282 91-262c-21-17-28-30-28-54 0-36 29-65 65-65s65 29 65 65c0 39-26 59-51 64v262l120-232c-15-16-18-35-18-45 0-36 30-66 66-66s66 30 66 66c0 32-22 63-63 66l-58 305q-3 19.5-3 27c0 10 0 30-20 40-40 20-61 71-61 101 0 27 14 55 24 73 4 8 7 15 7 18 0 53-180 81-271 81s-271-28-271-81c0-3 3-10 7-18 10-18 24-46 24-73 0-30-21-81-61-101-20-10-20-30-20-40q0-7.5-3-27l-58-305c-41-3-63-34-63-66" style="stroke-width:2;stroke-linecap:butt;stroke-linejoin:miter;stroke:#fff;stroke-opacity:1;stroke-miterlimit:10;fill-rule:nonzero;fill:#fff;fill-opacity:1"/><path d="M55 228c0-36 30-66 66-66s66 30 66 66c0 10-3 29-18 45l120 232V243c-25-5-51-25-51-64 0-36 29-65 65-65s65 29 65 65c0 24-7 37-28 54l91 262 38-282c-17-9-34-25-34-59 0-36 29-65 65-65s65 29 65 65c0 34-17 50-34 59l38 282 91-262c-21-17-28-30-28-54 0-36 29-65 65-65s65 29 65 65c0 39-26 59-51 64v262l120-232c-15-16-18-35-18-45 0-36 30-66 66-66s66 30 66 66c0 32-22 63-63 66l-58 305q-3 19.5-3 27c0 10 0 30-20 40-40 20-61 71-61 101 0 27 14 55 24 73 4 8 7 15 7 18 0 53-180 81-271 81s-271-28-271-81c0-3 3-10 7-18 10-18 24-46 24-73 0-30-21-81-61-101-20-10-20-30-20-40q0-7.5-3-27l-58-305c-41-3-63-34-63-66m232 442c11 14 15 27 18 41 54-14 135-20 195-20s141 6 195 20c3-14 7-27 18-41v-3c-57-15-143-24-213-24s-156 9-213 24zm22 141c11 9 19 16 29 31 57-11 114-15 162-15s105 4 162 15c10-15 18-22 29-31v-4c-65-14-133-20-191-20s-126 6-191 20z" style="stroke:none;fill-rule:nonzero;fill:#000;fill-opacity:1"/></svg>