<svg xmlns="http://www.w3.org/2000/svg" width="1000pt" height="1000pt" viewBox="0 0 1000 1000"><path d="M56 495c0-92 71-131 152-131 61 0 112 20 169 58l2-2s-11-27-11-62c0-50 20-117 102-135v-42h-60v-60h60V61h60v60h60v60h-60v42c82 18 102 85 102 135 0 35-11 62-11 62l2 2c57-38 108-58 169-58 81 0 152 39 152 131 0 127-75 198-140 235l-22 138c-12 30-77 71-282 71s-270-41-282-71l-22-138C131 693 56 622 56 495" style="stroke-width:2;stroke-linecap:butt;stroke-linejoin:miter;stroke:#fff;stroke-opacity:1;stroke-miterlimit:10;fill-rule:nonzero;fill:#fff;fill-opacity:1"/><path d="M56 495c0-92 71-131 152-131 61 0 112 20 169 58l2-2s-11-27-11-62c0-50 20-117 102-135v-42h-60v-60h60V61h60v60h60v60h-60v42c82 18 102 85 102 135 0 35-11 62-11 62l2 2c57-38 108-58 169-58 81 0 152 39 152 131 0 127-75 198-140 235l-22 138c-12 30-77 71-282 71s-270-41-282-71l-22-138C131 693 56 622 56 495m60 10c0 94 54 147 109 179 66-20 166-28 245-28-20-161-181-232-252-232s-102 29-102 81m34 14c0-30 18-62 58-62 111 0 205 98 219 171-71 0-140 6-196 22-63-38-81-101-81-131m108 278 6 43c96-15 164-21 236-21s140 6 236 21l6-43c-90-17-165-24-242-24s-152 7-242 24m272-141c79 0 179 8 245 28 55-32 109-85 109-179 0-52-31-81-102-81s-232 71-252 232m43-30c14-73 108-171 219-171 40 0 58 32 58 62s-18 93-81 131c-56-16-125-22-196-22" style="stroke:none;fill-rule:nonzero;fill:#000;fill-opacity:1"/></svg>