<svg viewBox="0 0 1000 1000"><path d="M56 782c14-3 28-7 46-13 28-10 60-18 92-18 12 0 26 0 41 2 16 2 34 3 51 3 41 0 97-5 130-28v-3l-108-54 31-91c-41-22-71-64-71-123 0-75 46-143 116-184 42-25 52-35 65-51v-3c-23-15-39-38-39-72 0-50 40-90 90-90s90 40 90 90c0 34-16 57-39 72v3c13 16 23 26 65 51 70 41 116 109 116 184 0 59-30 101-71 123l31 91-108 54v3c33 23 89 28 130 28 17 0 35-1 51-3 15-2 29-2 41-2 32 0 64 8 92 18 18 6 32 10 46 13l-51 161c-21-4-36-7-60-15-35-12-86-17-144-17-39 0-89-1-115-11-34-13-52-28-74-47-22 19-40 34-74 47-26 10-76 11-115 11-58 0-109 5-144 17-24 8-39 11-60 15L56 782" style="stroke-width:2;stroke-linecap:butt;stroke-linejoin:miter;stroke:#fff;stroke-opacity:1;stroke-miterlimit:10;fill-rule:nonzero;fill:#fff;fill-opacity:1"/><path d="M56 782c14-3 28-7 46-13 28-10 60-18 92-18 12 0 26 0 41 2 16 2 34 3 51 3 41 0 97-5 130-28v-3l-108-54 31-91c-41-22-71-64-71-123 0-75 46-143 116-184 42-25 52-35 65-51v-3c-23-15-39-38-39-72 0-50 40-90 90-90s90 40 90 90c0 34-16 57-39 72v3c13 16 23 26 65 51 70 41 116 109 116 184 0 59-30 101-71 123l31 91-108 54v3c33 23 89 28 130 28 17 0 35-1 51-3 15-2 29-2 41-2 32 0 64 8 92 18 18 6 32 10 46 13l-51 161c-21-4-36-7-60-15-35-12-86-17-144-17-39 0-89-1-115-11-34-13-52-28-74-47-22 19-40 34-74 47-26 10-76 11-115 11-58 0-109 5-144 17-24 8-39 11-60 15zm313-121 2 2c34-13 79-24 129-24s95 11 129 24l2-2-10-30c-29-13-76-23-121-23s-92 10-121 23zm20-71 2 1c22-13 64-23 109-23s87 10 109 23l2-1-10-32c-16-10-57-19-101-19s-85 9-101 19zm39-141h42v42h60v-42h42v-60h-42v-42h-60v42h-42z" style="stroke:none;fill-rule:nonzero;fill:#000;fill-opacity:1"/></svg>