<svg viewBox="0 0 1000 1000"><path d="M188 910V769c0-65 30-191 151-241v-3c-23-28-36-64-36-102 0-48 21-99 76-138v-2c-6-10-15-33-15-52 0-61 37-126 136-126s136 65 136 126c0 19-9 42-15 52v2c55 39 76 90 76 138 0 38-13 74-36 102v3c121 50 151 176 151 241v141H188" style="stroke-width:2;stroke-linecap:butt;stroke-linejoin:miter;stroke:#fff;stroke-opacity:1;stroke-miterlimit:10;fill-rule:nonzero;fill:#fff;fill-opacity:1"/><path d="M188 910V769c0-65 30-191 151-241v-3c-23-28-36-64-36-102 0-48 21-99 76-138v-2c-6-10-15-33-15-52 0-61 37-126 136-126s136 65 136 126c0 19-9 42-15 52v2c55 39 76 90 76 138 0 38-13 74-36 102v3c121 50 151 176 151 241v141z" style="stroke:none;fill-rule:nonzero;fill:#000;fill-opacity:1"/></svg>