<svg viewBox="0 0 1000 1000"><path d="M120 641c0-34 17-70 40-113 22-42 42-95 56-156 29-119 62-134 80-140v-87h4l84 67h4l50-90h2l51 107c11-3 23-5 35-5 206 0 324 352 356 668H331c0-78 28-130 53-174 19-34 36-67 36-100v-10l-115 84c-27 33-56 48-79 48-15 0-28-7-35-20-4 1-8 1-12 1-32 0-59-28-59-80" style="stroke-width:2;stroke-linecap:butt;stroke-linejoin:miter;stroke:#fff;stroke-opacity:1;stroke-miterlimit:10;fill-rule:nonzero;fill:#fff;fill-opacity:1"/><path d="M120 641c0-34 17-70 40-113 22-42 42-95 56-156 29-119 62-134 80-140v-87h4l84 67h4l50-90h2l51 107c11-3 23-5 35-5 206 0 324 352 356 668H331c0-78 28-130 53-174 19-34 36-67 36-100v-10l-115 84c-27 33-56 48-79 48-15 0-28-7-35-20-4 1-8 1-12 1-32 0-59-28-59-80m71-16c0 6 5 13 10 13 4 0 9-6 13-11 8-9 8-9 14-11s15-5 15-11c0-7-9-13-15-13-30 0-37 28-37 33m104-189h15c42 0 71-24 71-99 0-12-1-20-1-20-5 3-11 6-17 9-31 15-68 33-68 110m199-160c0 14 13 20 31 20 50 0 122 73 177 191 50 109 85 299 85 363 0 14 10 17 19 17 8 0 24-4 24-12 0-92-40-271-87-378-58-132-143-217-212-217-20 0-37 3-37 16" style="stroke:none;fill-rule:nonzero;fill:#000;fill-opacity:1"/></svg>