<svg viewBox="0 0 1000 1000"><path d="M56 495c0-92 71-131 152-131 61 0 112 20 169 58l2-2s-11-27-11-62c0-50 20-117 102-135v-42h-60v-60h60V61h60v60h60v60h-60v42c82 18 102 85 102 135 0 35-11 62-11 62l2 2c57-38 108-58 169-58 81 0 152 39 152 131 0 127-75 198-140 235l-22 138c-12 30-77 71-282 71s-270-41-282-71l-22-138C131 693 56 622 56 495" style="stroke-width:2;stroke-linecap:butt;stroke-linejoin:miter;stroke:#fff;stroke-opacity:1;stroke-miterlimit:10;fill-rule:nonzero;fill:#fff;fill-opacity:1"/><path d="M56 495c0-92 71-131 152-131 61 0 112 20 169 58l2-2s-11-27-11-62c0-50 20-117 102-135v-42h-60v-60h60V61h60v60h60v60h-60v42c82 18 102 85 102 135 0 35-11 62-11 62l2 2c57-38 108-58 169-58 81 0 152 39 152 131 0 127-75 198-140 235l-22 138c-12 30-77 71-282 71s-270-41-282-71l-22-138C131 693 56 622 56 495m60 10c0 94 54 147 109 179 66-20 166-28 245-28-20-161-181-232-252-232s-102 29-102 81m142 233 10 81c89-19 164-22 232-22s143 3 232 22l10-81c-91-21-155-22-242-22s-151 1-242 22m67 133c58 14 115 18 175 18s117-4 175-18v-4c-58-14-115-18-175-18s-117 4-175 18zm103-506c0 51 35 123 70 190h4c35-67 70-139 70-190 0-56-27-82-72-82s-72 26-72 82m102 291c79 0 179 8 245 28 55-32 109-85 109-179 0-52-31-81-102-81s-232 71-252 232" style="stroke:none;fill-rule:nonzero;fill:#000;fill-opacity:1"/></svg>