<svg xmlns="http://www.w3.org/2000/svg" width="1000pt" height="1000pt" viewBox="0 0 1000 1000"><path d="M120 642c0-34 17-70 40-113 22-42 42-95 56-156 29-119 62-134 80-140v-87h4l84 67h4l50-90h2l51 107c11-3 23-5 35-5 206 0 324 352 356 668H331c0-78 28-130 53-174 19-34 36-67 36-100v-10l-115 84c-27 33-56 48-79 48-15 0-28-7-35-20-4 1-8 1-12 1-32 0-59-28-59-80" style="stroke-width:2;stroke-linecap:butt;stroke-linejoin:miter;stroke:#fff;stroke-opacity:1;stroke-miterlimit:10;fill-rule:nonzero;fill:#fff;fill-opacity:1"/><path d="M120 642c0-34 17-70 40-113 22-42 42-95 56-156 29-119 62-134 80-140v-87h4l84 67h4l50-90h2l51 107c11-3 23-5 35-5 206 0 324 352 356 668H331c0-78 28-130 53-174 19-34 36-67 36-100v-10l-115 84c-27 33-56 48-79 48-15 0-28-7-35-20-4 1-8 1-12 1-32 0-59-28-59-80m53-4c0 25 6 31 17 31 4 0 7-1 12-3 9-15 18-28 36-29 6 0 14 1 14 5 0 2-2 4-5 6-11 7-12 19-12 27v7c12-8 35-25 61-47 44-37 105-83 144-108 19-12 37-24 50-58 8 9 11 20 11 32 0 29-18 62-30 73 3 13 5 23 5 36 0 54-28 111-56 157-14 22-24 45-26 69h419c-67-447-204-555-295-555-20 0-39 5-54 13l-27-55-22 38-96 23-11-11c-14 11-27 40-36 82-10 48-30 120-69 188-19 33-30 61-30 79m18-12c0-5 7-33 37-33 6 0 15 6 15 13 0 6-9 9-15 11s-6 2-14 11c-4 5-9 11-13 11-5 0-10-7-10-13m104-189c0-77 37-95 68-110 6-3 12-6 17-9 0 0 1 8 1 20 0 75-29 99-71 99z" style="stroke:none;fill-rule:nonzero;fill:#000;fill-opacity:1"/></svg>