<svg xmlns="http://www.w3.org/2000/svg" width="1000pt" height="1000pt" viewBox="0 0 1000 1000"><path d="M188 910V769c0-65 30-191 151-241v-3c-23-28-36-64-36-102 0-48 21-99 76-138v-2c-6-10-15-33-15-52 0-61 37-126 136-126s136 65 136 126c0 19-9 42-15 52v2c55 39 76 90 76 138 0 38-13 74-36 102v3c121 50 151 176 151 241v141H188" style="stroke-width:2;stroke-linecap:butt;stroke-linejoin:miter;stroke:#fff;stroke-opacity:1;stroke-miterlimit:10;fill-rule:nonzero;fill:#fff;fill-opacity:1"/><path d="M188 910V769c0-65 30-191 151-241v-3c-23-28-36-64-36-102 0-48 21-99 76-138v-2c-6-10-15-33-15-52 0-61 37-126 136-126s136 65 136 126c0 19-9 42-15 52v2c55 39 76 90 76 138 0 38-13 74-36 102v3c121 50 151 176 151 241v141zm60-60h504V749c0-77-67-173-171-201v-4c29-30 52-74 52-120 0-47-22-93-83-118v-2c16-15 26-41 26-65 0-38-22-74-76-74s-76 36-76 74c0 24 10 50 26 65v2c-61 25-83 71-83 118 0 46 23 90 52 120v4c-104 28-171 124-171 201z" style="stroke:none;fill-rule:nonzero;fill:#000;fill-opacity:1"/></svg>