<svg xmlns="http://www.w3.org/2000/svg" width="1000pt" height="1000pt" viewBox="0 0 1000 1000"><path d="M56 782c14-3 28-7 46-13 28-10 60-18 92-18 12 0 26 0 41 2 16 2 34 3 51 3 41 0 97-5 130-28v-3l-108-54 31-91c-41-22-71-64-71-123 0-75 46-143 116-184 42-25 52-35 65-51v-3c-23-15-39-38-39-72 0-50 40-90 90-90s90 40 90 90c0 34-16 57-39 72v3c13 16 23 26 65 51 70 41 116 109 116 184 0 59-30 101-71 123l31 91-108 54v3c33 23 89 28 130 28 17 0 35-1 51-3 15-2 29-2 41-2 32 0 64 8 92 18 18 6 32 10 46 13l-51 161c-21-4-36-7-60-15-35-12-86-17-144-17-39 0-89-1-115-11-34-13-52-28-74-47-22 19-40 34-74 47-26 10-76 11-115 11-58 0-109 5-144 17-24 8-39 11-60 15L56 782" style="stroke-width:2;stroke-linecap:butt;stroke-linejoin:miter;stroke:#fff;stroke-opacity:1;stroke-miterlimit:10;fill-rule:nonzero;fill:#fff;fill-opacity:1"/><path d="M56 782c14-3 28-7 46-13 28-10 60-18 92-18 12 0 26 0 41 2 16 2 34 3 51 3 41 0 97-5 130-28v-3l-108-54 31-91c-41-22-71-64-71-123 0-75 46-143 116-184 42-25 52-35 65-51v-3c-23-15-39-38-39-72 0-50 40-90 90-90s90 40 90 90c0 34-16 57-39 72v3c13 16 23 26 65 51 70 41 116 109 116 184 0 59-30 101-71 123l31 91-108 54v3c33 23 89 28 130 28 17 0 35-1 51-3 15-2 29-2 41-2 32 0 64 8 92 18 18 6 32 10 46 13l-51 161c-21-4-36-7-60-15-35-12-86-17-144-17-39 0-89-1-115-11-34-13-52-28-74-47-22 19-40 34-74 47-26 10-76 11-115 11-58 0-109 5-144 17-24 8-39 11-60 15zm71 50 20 51c21-11 43-17 61-20 39-8 72-11 106-12 43-1 137-10 186-59 49 49 143 58 186 59 34 1 67 4 106 12 18 3 40 9 61 20l20-51c-35-12-75-21-125-23-29-1-78-4-111-9-54-8-69-18-97-38h-80c-28 20-43 30-97 38-33 5-82 8-111 9-50 2-90 11-125 23m201-376c0 40 7 74 52 94 39-13 77-20 120-20s81 7 120 20c45-20 52-54 52-94 0-74-52-122-96-148-29-17-57-34-75-69h-2c-18 35-46 52-75 69-44 26-96 74-96 148m51 165c25-10 73-15 121-15s96 5 121 15l-10-30c-20-10-81-16-111-16s-91 6-111 16zm20 41c40 6 61 9 101 9s61-3 101-9v-2c-40-6-61-9-101-9s-61 3-101 9zm29-213v-60h42v-42h60v42h42v60h-42v42h-60v-42zm42-302c0 17 13 30 30 30s30-13 30-30-13-30-30-30-30 13-30 30" style="stroke:none;fill-rule:nonzero;fill:#000;fill-opacity:1"/></svg>