<svg xmlns="http://www.w3.org/2000/svg" width="1000pt" height="1000pt" viewBox="0 0 1000 1000"><path d="M55 228c0-36 30-66 66-66s66 30 66 66c0 10-3 29-18 45l120 232V243c-25-5-51-25-51-64 0-36 29-65 65-65s65 29 65 65c0 24-7 37-28 54l91 262 38-282c-17-9-34-25-34-59 0-36 29-65 65-65s65 29 65 65c0 34-17 50-34 59l38 282 91-262c-21-17-28-30-28-54 0-36 29-65 65-65s65 29 65 65c0 39-26 59-51 64v262l120-232c-15-16-18-35-18-45 0-36 30-66 66-66s66 30 66 66c0 32-22 63-63 66l-58 305q-3 19.5-3 27c0 10 0 30-20 40-40 20-61 71-61 101 0 27 14 55 24 73 4 8 7 15 7 18 0 53-180 81-271 81s-271-28-271-81c0-3 3-10 7-18 10-18 24-46 24-73 0-30-21-81-61-101-20-10-20-30-20-40q0-7.5-3-27l-58-305c-41-3-63-34-63-66" style="stroke-width:2;stroke-linecap:butt;stroke-linejoin:miter;stroke:#fff;stroke-opacity:1;stroke-miterlimit:10;fill-rule:nonzero;fill:#fff;fill-opacity:1"/><path d="M55 228c0-36 30-66 66-66s66 30 66 66c0 10-3 29-18 45l120 232V243c-25-5-51-25-51-64 0-36 29-65 65-65s65 29 65 65c0 24-7 37-28 54l91 262 38-282c-17-9-34-25-34-59 0-36 29-65 65-65s65 29 65 65c0 34-17 50-34 59l38 282 91-262c-21-17-28-30-28-54 0-36 29-65 65-65s65 29 65 65c0 39-26 59-51 64v262l120-232c-15-16-18-35-18-45 0-36 30-66 66-66s66 30 66 66c0 32-22 63-63 66l-58 305q-3 19.5-3 27c0 10 0 30-20 40-40 20-61 71-61 101 0 27 14 55 24 73 4 8 7 15 7 18 0 53-180 81-271 81s-271-28-271-81c0-3 3-10 7-18 10-18 24-46 24-73 0-30-21-81-61-101-20-10-20-30-20-40q0-7.5-3-27l-58-305c-41-3-63-34-63-66m41 0c0 14 11 25 25 25s25-11 25-25-11-25-25-25-25 11-25 25m83 162 39 220c6 2 11 2 17 2 22 0 42-11 52-27L183 389zm95 264c5 6 9 15 9 15 79-18 156-28 217-28s138 10 217 28c0 0 4-9 9-15-10-3-36-18-49-34-17 5-30 7-43 7-28 0-49-11-76-28-18 10-38 16-58 16s-40-6-58-16c-27 17-48 28-76 28-13 0-26-2-43-7-13 16-39 31-49 34m4-475c0 14 11 25 25 25s25-11 25-25-11-25-25-25-25 11-25 25m23 531c10 23 14 42 14 59 0 15-2 26-6 39l2 2c56-14 128-20 189-20s133 6 189 20l2-2c-4-13-6-24-6-39 0-17 4-36 14-59-44-12-128-24-199-24s-155 12-199 24m30-359 4 222c9 4 20 6 29 6 17 0 33-7 44-19l-73-210zm15 512c48 14 121 16 154 16s106-2 154-16v-2c-48-14-120-16-154-16s-106 2-154 16zm117-317c10 8 24 11 37 11s27-3 37-11l-35-231h-4zm12-392c0 14 11 25 25 25s25-11 25-25-11-25-25-25-25 11-25 25m117 406c11 12 27 19 44 19 9 0 20-2 29-6l4-222-4-1zm80-381c0 14 11 25 25 25s25-11 25-25-11-25-25-25-25 11-25 25m41 406c10 16 30 27 52 27 6 0 11 0 17-2l39-220-4-1zm141-357c0 14 11 25 25 25s25-11 25-25-11-25-25-25-25 11-25 25" style="stroke:none;fill-rule:nonzero;fill:#000;fill-opacity:1"/></svg>