<svg xmlns="http://www.w3.org/2000/svg" width="1000pt" height="1000pt" viewBox="0 0 1000 1000"><path d="M188 910V741l120-109V396l-120-80V115h180v80h41v-80h182v80h41v-80h180v201l-120 80v236l120 109v169H188" style="stroke-width:2;stroke-linecap:butt;stroke-linejoin:miter;stroke:#fff;stroke-opacity:1;stroke-miterlimit:10;fill-rule:nonzero;fill:#fff;fill-opacity:1"/><path d="M188 910V741l120-109V396l-120-80V115h180v80h41v-80h182v80h41v-80h180v201l-120 80v236l120 109v169zm60-60h504v-40H248zm0-575 120 81h264l120-81V175h-60v80H531v-80h-62v80H308v-80h-60zm30 475h444l-90-81H368zm90-152h264V427H368z" style="stroke:none;fill-rule:nonzero;fill:#000;fill-opacity:1"/></svg>