<svg xmlns="http://www.w3.org/2000/svg" width="1000pt" height="1000pt" viewBox="0 0 1000 1000"><path d="M278 844c0-65 28-128 84-172 35-27 51-57 51-82 0-12-9-19-21-28-13-10-42-34-42-76 0-30 13-58 34-78 19-18 36-43 36-60 0-10-6-13-13-13h-40c-10 0-10-4-10-8s4-10 7-13l81-86c3-3 7-7 7-13s-4-11-10-16c-9-8-16-24-16-43 0-35 26-70 74-70s74 35 74 70c0 19-7 35-16 43-6 5-10 10-10 16s4 10 7 13l81 86c3 3 7 9 7 13s0 8-10 8h-40c-7 0-13 3-13 13 0 17 17 42 36 60 21 20 34 48 34 78 0 42-29 66-42 76-12 9-21 16-21 28 0 25 16 55 51 82 56 44 84 107 84 172 0 8 0 13-2 22H280c-2-9-2-14-2-22" style="stroke-width:2;stroke-linecap:butt;stroke-linejoin:miter;stroke:#fff;stroke-opacity:1;stroke-miterlimit:10;fill-rule:nonzero;fill:#fff;fill-opacity:1"/><path d="M278 844c0-65 28-128 84-172 35-27 51-57 51-82 0-12-9-19-21-28-13-10-42-34-42-76 0-30 13-58 34-78 19-18 36-43 36-60 0-10-6-13-13-13h-40c-10 0-10-4-10-8s4-10 7-13l81-86c3-3 7-7 7-13s-4-11-10-16c-9-8-16-24-16-43 0-35 26-70 74-70s74 35 74 70c0 19-7 35-16 43-6 5-10 10-10 16s4 10 7 13l81 86c3 3 7 9 7 13s0 8-10 8h-40c-7 0-13 3-13 13 0 17 17 42 36 60 21 20 34 48 34 78 0 42-29 66-42 76-12 9-21 16-21 28 0 25 16 55 51 82 56 44 84 107 84 172 0 8 0 13-2 22H280c-2-9-2-14-2-22" style="stroke:none;fill-rule:nonzero;fill:#000;fill-opacity:1"/></svg>