<svg xmlns="http://www.w3.org/2000/svg" width="1000pt" height="1000pt" viewBox="0 0 1000 1000"><path d="M62 910c38-42 92-82 158-82 32 0 57 5 79 13 23 8 60 17 77 17s35-4 46-17v-4c-40-11-73-23-108-51 12-35 20-66 20-107 0-23-10-45-28-79s-36-95-36-146c0-172 153-296 197-330-16-14-18-30-18-37 0-19 11-35 36-35 23 0 33 17 33 31 0 17-8 30-20 39 15 12 34 28 47 40 13-12 21-22 31-35-11-9-24-22-24-40 0-19 13-35 33-35 22 0 33 16 33 30 0 18-11 31-20 41 52 51 136 146 136 278 0 64-16 117-38 173-13 34-24 71-24 107 0 37 4 60 14 97-26 24-51 44-110 56v4c9 11 24 20 38 20 30 0 46-1 76-11 34-11 65-19 91-19 77 0 133 38 157 66l-8 11c-16-11-31-19-56-23l-2 3c18 12 31 37 38 51l-9 8c-29-32-55-60-121-60-26 0-56 9-85 19-28 10-51 13-91 13-42 0-76-33-102-66h-4c-18 29-52 66-92 66-42 0-60-4-95-16-20-7-46-16-75-16-60 0-81 16-128 60l-9-8c11-19 21-32 36-45l-3-3c-17 5-39 16-61 33l-9-11" style="stroke-width:2;stroke-linecap:butt;stroke-linejoin:miter;stroke:#fff;stroke-opacity:1;stroke-miterlimit:10;fill-rule:nonzero;fill:#fff;fill-opacity:1"/><path d="M62 910c38-42 92-82 158-82 32 0 57 5 79 13 23 8 60 17 77 17s35-4 46-17v-4c-40-11-73-23-108-51 12-35 20-66 20-107 0-23-10-45-28-79s-36-95-36-146c0-172 153-296 197-330-16-14-18-30-18-37 0-19 11-35 36-35 23 0 33 17 33 31 0 17-8 30-20 39 15 12 34 28 47 40 13-12 21-22 31-35-11-9-24-22-24-40 0-19 13-35 33-35 22 0 33 16 33 30 0 18-11 31-20 41 52 51 136 146 136 278 0 64-16 117-38 173-13 34-24 71-24 107 0 37 4 60 14 97-26 24-51 44-110 56v4c9 11 24 20 38 20 30 0 46-1 76-11 34-11 65-19 91-19 77 0 133 38 157 66l-8 11c-16-11-31-19-56-23l-2 3c18 12 31 37 38 51l-9 8c-29-32-55-60-121-60-26 0-56 9-85 19-28 10-51 13-91 13-42 0-76-33-102-66h-4c-18 29-52 66-92 66-42 0-60-4-95-16-20-7-46-16-75-16-60 0-81 16-128 60l-9-8c11-19 21-32 36-45l-3-3c-17 5-39 16-61 33zm267-130c11-4 19-7 26-8 54-14 85-22 145-22s91 8 145 22c6 1 15 4 26 8 0-7-5-23-8-24-17-10-87-28-163-28s-146 18-163 28c-4 1-8 17-8 24m6-144c0 7 0 9 4 16 17-6 25-9 36-13 34-12 81-19 125-19s91 7 125 19c11 4 19 7 36 13 4-7 4-9 4-16 0-19-101-40-165-40s-165 21-165 40m7 95 3 1c43-40 43-50 43-54 0-6-16-11-40-16 0 24 0 44-6 69m22-340c0 11 1 19 11 19 6 0 17-1 32-4 14-3 30-5 38-5 12 0 15 8 15 17v111c0 12 2 15 22 15s22-3 22-15V418c0-9 3-17 15-17 8 0 24 2 38 5 15 3 26 4 32 4 10 0 11-8 11-19 0-17-5-24-53-27-35-2-43-6-43-19v-96c0-16-8-17-22-17s-22 1-22 17v96c0 13-8 17-43 19-48 3-53 10-53 27m63 457c0 8 26 11 32 11 16 0 27-1 27-15-17-1-37-3-53-6-4 4-6 6-6 10m11-174c0 8 46 30 56 30s56-24 56-30c0-8-44-30-56-30s-56 24-56 30m75 170c0 14 11 15 27 15 6 0 32-4 32-12 0-4-2-6-6-10-16 3-36 6-53 7m43-672c103 100 134 188 134 337l5 1c6-37 9-64 9-85 0-97-42-185-131-269zm60 515c0 8 11 18 38 37l3-2c-2-17-2-40-2-56-18 5-39 13-39 21" style="stroke:none;fill-rule:nonzero;fill:#000;fill-opacity:1"/></svg>