<svg xmlns="http://www.w3.org/2000/svg" width="1000pt" height="1000pt" viewBox="0 0 1000 1000"><path d="M54 339c0-23 16-39 39-39s39 16 39 39c0 5-1 13-3 17-2 5-3 9-3 13 0 6 3 13 9 20l90 117c12 16 24 32 39 32 17 0 23-18 23-35V311c0-11-2-26-17-33-11-5-18-20-18-31 0-20 14-41 37-41s41 15 41 39c0 11-4 22-11 28s-12 12-12 21c0 10 3 18 8 29l72 165c6 13 13 24 27 24 11 0 20-4 23-20l50-242c2-9 4-21 4-29 0-9 0-16-11-22-12-7-28-17-28-43s22-48 48-48 48 22 48 48-16 36-28 43c-11 6-11 13-11 22 0 8 2 20 4 29l50 242c3 16 12 20 23 20 14 0 21-11 27-24l72-165c5-11 8-19 8-29 0-9-5-15-12-21s-11-17-11-28c0-24 18-39 41-39s37 21 37 41c0 11-7 26-18 31-15 7-17 22-17 33v192c0 17 6 35 23 35 15 0 27-16 39-32l90-117c6-7 9-14 9-20 0-4-1-8-3-13-2-4-3-12-3-17 0-23 16-39 39-39s39 16 39 39-18 37-31 39c-9 1-19 3-22 12l-70 188c-20 53-41 117-41 147 0 26 0 43 7 60l21 49c-96 39-214 58-310 58s-214-19-310-58l21-49c4-18 7-34 7-60 0-30-21-94-41-147l-70-188c-3-9-13-11-22-12-13-2-31-16-31-39" style="stroke-width:2;stroke-linecap:butt;stroke-linejoin:miter;stroke:#fff;stroke-opacity:1;stroke-miterlimit:10;fill-rule:nonzero;fill:#fff;fill-opacity:1"/><path d="M54 339c0-23 16-39 39-39s39 16 39 39c0 5-1 13-3 17-2 5-3 9-3 13 0 6 3 13 9 20l90 117c12 16 24 32 39 32 17 0 23-18 23-35V311c0-11-2-26-17-33-11-5-18-20-18-31 0-20 14-41 37-41s41 15 41 39c0 11-4 22-11 28s-12 12-12 21c0 10 3 18 8 29l72 165c6 13 13 24 27 24 11 0 20-4 23-20l50-242c2-9 4-21 4-29 0-9 0-16-11-22-12-7-28-17-28-43s22-48 48-48 48 22 48 48-16 36-28 43c-11 6-11 13-11 22 0 8 2 20 4 29l50 242c3 16 12 20 23 20 14 0 21-11 27-24l72-165c5-11 8-19 8-29 0-9-5-15-12-21s-11-17-11-28c0-24 18-39 41-39s37 21 37 41c0 11-7 26-18 31-15 7-17 22-17 33v192c0 17 6 35 23 35 15 0 27-16 39-32l90-117c6-7 9-14 9-20 0-4-1-8-3-13-2-4-3-12-3-17 0-23 16-39 39-39s39 16 39 39-18 37-31 39c-9 1-19 3-22 12l-70 188c-20 53-41 117-41 147 0 26 0 43 7 60l21 49c-96 39-214 58-310 58s-214-19-310-58l21-49c4-18 7-34 7-60 0-30-21-94-41-147l-70-188c-3-9-13-11-22-12-13-2-31-16-31-39m160 492 4 1c45-20 147-50 282-50s237 30 282 50l4-1c-4-14-9-29-13-38-13-31-170-55-273-55s-260 24-273 55c-4 9-9 24-13 38m4-179c0 7 2 16 6 26h2c29-50 190-60 274-60s245 10 274 60h2c4-10 6-19 6-26 0-22-23-33-45-42-51-21-151-32-237-32s-186 11-237 32c-22 9-45 20-45 42m15 41c0 18 2 57 15 57 27 0 124-38 124-58 0-9-53-16-97-16-15 0-42 10-42 17m189-13c0 12 58 32 78 32s78-20 78-32-58-34-78-34-78 22-78 34m206 12c0 20 97 58 124 58 13 0 15-39 15-57 0-7-27-17-42-17-44 0-97 7-97 16" style="stroke:none;fill-rule:nonzero;fill:#000;fill-opacity:1"/></svg>