<svg xmlns="http://www.w3.org/2000/svg" width="1000pt" height="1000pt" viewBox="0 0 1000 1000"><path d="M192 903c0-22 8-40 17-51v-98l75-112V287l-58-71V76c34-5 79-9 107-9l7 59h85V63c24-2 51-3 75-3s50 1 74 3v63h86l7-60c28 0 73 5 107 10v140l-58 71v355l75 112v98c9 11 17 29 17 51 0 10-1 20-4 31H196c-3-11-4-21-4-31" style="stroke-width:2;stroke-linecap:butt;stroke-linejoin:miter;stroke:#fff;stroke-opacity:1;stroke-miterlimit:10;fill-rule:nonzero;fill:#fff;fill-opacity:1"/><path d="M192 903c0-22 8-40 17-51v-98l75-112V287l-58-71V76c34-5 79-9 107-9l7 59h85V63c24-2 51-3 75-3s50 1 74 3v63h86l7-60c28 0 73 5 107 10v140l-58 71v355l75 112v98c9 11 17 29 17 51 0 10-1 20-4 31H196c-3-11-4-21-4-31m35-61c0 5 0 7 1 10h544c1-3 1-5 1-10s-3-10-7-14H234c-4 4-7 9-7 14m23-636c80-12 150-17 246-17s174 5 254 17v-56H250zm6 538c0 3 0 7 2 10h484c2-3 2-7 2-10 0-15-6-27-25-46H281c-19 19-25 31-25 46m36-70h416c0-9-5-18-14-24h-50v-64c16 0 32 1 48 2v-24c-36-2-74-4-112-4v-82c40 2 79 4 112 6v-24q-22.5-1.5-48-3v-85c17 1 33 2 48 4v-24c-33-4-72-6-112-8v-54c40 2 79 4 112 6v-26c-71-6-120-8-192-8s-121 2-192 8v26c33-2 72-4 112-6v54c-40 2-79 4-112 8v24c15-2 31-3 48-4v85q-25.5 1.5-48 3v24c33-2 72-4 112-6v82c-38 0-76 2-112 4v24c16-1 32-2 48-2v64h-50c-9 6-14 15-14 24m88-24v-65c36-1 72-1 108-1v66zm0-194v-86c35-2 73-4 108-4v86c-35 0-73 2-108 4m64 104v-83c19-1 38-1 56-1s37 0 56 1v83zm0-217v-54c19-1 38-1 56-1s37 0 56 1v54c-19-1-38-1-56-1s-37 0-56 1m68 307v-66c36 0 72 0 108 1v65zm0-198v-86c35 0 73 2 108 4v86c-35-2-73-4-108-4" style="stroke:none;fill-rule:nonzero;fill:#000;fill-opacity:1"/></svg>