<svg xmlns="http://www.w3.org/2000/svg" width="1000pt" height="1000pt" viewBox="0 0 1000 1000"><path d="M84 619c0-58 16-79 34-101 21-26 43-58 60-92 16-32 33-62 54-90 10-56 24-95 44-130l-6-47c-1-9-2-23-2-33 0-8 2-26 15-26 18 0 52 50 65 74h24c5-34 15-78 30-78 14 0 23 19 30 36 8 20 14 29 30 43 13 11 19 16 30 16 7 0 13 0 19-1s13-2 21-2c20 0 50 4 50 11v19c47 5 93 15 93 23 0 5-17 11-29 15v3c28 5 100 29 100 42 0 8-22 11-39 13l-1 2c30 12 94 69 94 85 0 8-22 10-37 10l-1 3c28 20 82 80 82 96 0 3-1 4-4 4-4 0-11-1-17-2-7-2-15-3-20-3l-2 3c25 24 73 76 73 96 0 2-1 4-5 4s-11-2-19-5c-7-3-15-6-20-6l-1 2c22 23 53 78 53 97 0 3-2 5-5 5s-9-1-16-5c-5-3-12-6-16-7l-1 2c26 37 50 80 50 96 0 2-1 4-5 4s-11-2-19-5c-5-2-13-4-17-5l-1 2c16 21 31 52 32 79H286c0-74 34-123 86-182 45-51 63-79 76-148l-6-4c-26 17-52 22-72 22-16 22-24 28-50 46-25 17-41 36-52 66-12 33-31 64-63 64-29 0-40-8-50-21-36-13-71-35-71-90" style="stroke-width:2;stroke-linecap:butt;stroke-linejoin:miter;stroke:#fff;stroke-opacity:1;stroke-miterlimit:10;fill-rule:nonzero;fill:#fff;fill-opacity:1"/><path d="M84 619c0-58 16-79 34-101 21-26 43-58 60-92 16-32 33-62 54-90 10-56 24-95 44-130l-6-47c-1-9-2-23-2-33 0-8 2-26 15-26 18 0 52 50 65 74h24c5-34 15-78 30-78 14 0 23 19 30 36 8 20 14 29 30 43 13 11 19 16 30 16 7 0 13 0 19-1s13-2 21-2c20 0 50 4 50 11v19c47 5 93 15 93 23 0 5-17 11-29 15v3c28 5 100 29 100 42 0 8-22 11-39 13l-1 2c30 12 94 69 94 85 0 8-22 10-37 10l-1 3c28 20 82 80 82 96 0 3-1 4-4 4-4 0-11-1-17-2-7-2-15-3-20-3l-2 3c25 24 73 76 73 96 0 2-1 4-5 4s-11-2-19-5c-7-3-15-6-20-6l-1 2c22 23 53 78 53 97 0 3-2 5-5 5s-9-1-16-5c-5-3-12-6-16-7l-1 2c26 37 50 80 50 96 0 2-1 4-5 4s-11-2-19-5c-5-2-13-4-17-5l-1 2c16 21 31 52 32 79H286c0-74 34-123 86-182 45-51 63-79 76-148l-6-4c-26 17-52 22-72 22-16 22-24 28-50 46-25 17-41 36-52 66-12 33-31 64-63 64-29 0-40-8-50-21-36-13-71-35-71-90m25-27c0 15 10 24 24 24 11 0 21-4 21-14 0-6-6-11-12-14s-8-10-8-17c0-6-3-11-7-11-11 0-18 17-18 32m62 44c0 14 12 26 23 26 6 0 8-4 9-10 1-5 3-8 5-11q6-7.5 6-15c0-11-9-20-22-20-14 0-21 16-21 30m77-235c0 4 3 7 7 7 7 0 9-4 10-8 5-17 15-42 36-54 14-8 24-10 36-10 5 0 14 1 17 3s6 3 10 3c9 0 9-6 9-10 0-10-15-14-27-14-19 0-40 5-54 14-24 15-44 48-44 69m28-168c0 4 3 5 5 5 6 0 9-5 12-10 3-6 8-12 15-12 5 0 5 6 5 12s0 12 5 12 9-4 12-14c4-12 15-20 20-20 3 0 4 1 4 4 0 4 0 7-1 11-1 3-1 7-1 9 0 3 0 6 4 6s7-6 9-17c1-9 5-21 12-31-16 0-36-1-48-5-24 12-53 32-53 50m16 143c0 9 15 11 26 11 14 0 26-5 26-18 0-8-5-15-15-18-19 1-37 15-37 25m176-142c316 50 338 443 338 632h32c0-212-41-608-364-654zm8 243c0 3 3 5 7 5 13 0 46-63 46-104 0-27-5-80-24-80-7 0-11 6-11 14 0 10 4 21 8 31 7 17 8 32 8 45 0 31-16 63-28 77-3 4-6 8-6 12m3 53c0 5 5 6 14 6 27 0 62-15 80-31 26-23 39-53 39-68 0-8-2-14-7-14-7 0-11 11-16 25-8 22-19 36-27 44-23 21-40 27-72 31-7 1-11 2-11 7m1-26c0 4 2 5 6 5 8 0 42-25 60-51 15-22 26-45 26-62 0-6-2-11-9-11-10 0-13 11-15 23-7 36-29 65-51 79-6 3-17 11-17 17" style="stroke:none;fill-rule:nonzero;fill:#000;fill-opacity:1"/></svg>