<svg xmlns="http://www.w3.org/2000/svg" width="1000pt" height="1000pt" viewBox="0 0 1000 1000"><path d="M96 408c0-87 68-160 154-160 68 0 120 28 164 76l4-2V122c0-22 4-26 26-26h112c22 0 26 4 26 26v200l4 2c44-48 96-76 164-76 86 0 154 73 154 160s-52 141-106 196c-29 29-50 52-50 68 0 7 1 14 6 19 8 8 16 18 16 36 0 25-18 41-28 48l-8 77c-72 18-166 22-234 22s-162-4-234-22l-8-77c-10-7-28-23-28-48 0-18 8-28 16-36 5-5 6-12 6-19 0-16-21-39-50-68-54-55-106-109-106-196" style="stroke-width:2;stroke-linecap:butt;stroke-linejoin:miter;stroke:#fff;stroke-opacity:1;stroke-miterlimit:10;fill-rule:nonzero;fill:#fff;fill-opacity:1"/><path d="M96 408c0-87 68-160 154-160 68 0 120 28 164 76l4-2V122c0-22 4-26 26-26h112c22 0 26 4 26 26v200l4 2c44-48 96-76 164-76 86 0 154 73 154 160s-52 141-106 196c-29 29-50 52-50 68 0 7 1 14 6 19 8 8 16 18 16 36 0 25-18 41-28 48l-8 77c-72 18-166 22-234 22s-162-4-234-22l-8-77c-10-7-28-23-28-48 0-18 8-28 16-36 5-5 6-12 6-19 0-16-21-39-50-68-54-55-106-109-106-196m69 3c0 79 23 122 94 234 7 11 7 21 7 32 62-10 150-18 213-18 0-186-55-360-211-360-61 0-103 52-103 112m41 35c0-49 32-99 82-99 117 0 158 167 158 281-48 0-102 6-159 15-11-26-22-47-36-67-26-36-45-84-45-130m46 89c10 41 36 54 53 54 11 0 14-5 14-13 0-18-25-41-67-41m5 213c0 8 7 14 9 14 41-19 114-32 234-32s193 13 234 32c2 0 9-6 9-14 0-17-34-26-50-29-69-14-117-16-193-16s-124 2-193 16c-16 3-50 12-50 29m19 22 4 40c25-8 42-16 42-32 0-8-14-10-31-10-5 0-10 1-15 2m5 55 3 23c88-22 148-24 216-24s128 2 216 24l3-23c-82-21-138-25-219-25s-137 4-219 25m29-307c0 29 20 53 31 53 14 0 17-23 17-43s-16-49-38-60c-7 17-10 30-10 50m21 87c0 8 8 10 14 10 12 0 25-7 25-17 0-6-7-9-14-9-12 0-25 8-25 16m35-50c0 12 7 17 15 17 19 0 32-30 32-67-27 0-47 29-47 50m62 210c0 12 44 19 72 19s72-7 72-19-44-19-72-19-72 7-72 19m2-445c0 38 32 70 70 70s70-32 70-70-32-70-70-70-70 32-70 70m2-94h21l27-39-6-6-42 25zm0-96 42 25 6-6-27-39h-21zm14 190c0-30 24-54 54-54s54 24 54 54-24 54-54 54-54-24-54-54m36-152c0 10 8 18 18 18s18-8 18-18-8-18-18-18-18 8-18 18m38 19 27 39h21v-20l-42-25zm0-38 6 6 42-25v-20h-21zm1 510c63 0 151 8 213 18 0-11 0-21 7-32 71-112 94-155 94-234 0-60-42-112-103-112-156 0-211 174-211 360m33-31c0-114 41-281 158-281 50 0 82 50 82 99 0 46-19 94-45 130-14 20-25 41-36 67-57-9-111-15-159-15m33-123c0 37 13 67 32 67 8 0 15-5 15-17 0-21-20-50-47-50m43 93c0 10 13 17 25 17 6 0 14-2 14-10s-13-16-25-16c-7 0-14 3-14 9m12-70c0 20 3 43 17 43 11 0 31-24 31-53 0-20-3-33-10-50-22 11-38 40-38 60m36 250c0 16 17 24 42 32l4-40c-5-1-10-2-15-2-17 0-31 2-31 10m3-202c0 8 3 13 14 13 17 0 43-13 53-54-42 0-67 23-67 41" style="stroke:none;fill-rule:nonzero;fill:#000;fill-opacity:1"/></svg>