<svg xmlns="http://www.w3.org/2000/svg" width="1000pt" height="1000pt" viewBox="0 0 1000 1000"><path d="M54 339c0-23 16-39 39-39s39 16 39 39c0 5-1 13-3 17-2 5-3 9-3 13 0 6 3 13 9 20l90 117c12 16 24 32 39 32 17 0 23-18 23-35V311c0-11-2-26-17-33-11-5-18-20-18-31 0-20 14-41 37-41s41 15 41 39c0 11-4 22-11 28s-12 12-12 21c0 10 3 18 8 29l72 165c6 13 13 24 27 24 11 0 20-4 23-20l50-242c2-9 4-21 4-29 0-9 0-16-11-22-12-7-28-17-28-43s22-48 48-48 48 22 48 48-16 36-28 43c-11 6-11 13-11 22 0 8 2 20 4 29l50 242c3 16 12 20 23 20 14 0 21-11 27-24l72-165c5-11 8-19 8-29 0-9-5-15-12-21s-11-17-11-28c0-24 18-39 41-39s37 21 37 41c0 11-7 26-18 31-15 7-17 22-17 33v192c0 17 6 35 23 35 15 0 27-16 39-32l90-117c6-7 9-14 9-20 0-4-1-8-3-13-2-4-3-12-3-17 0-23 16-39 39-39s39 16 39 39-18 37-31 39c-9 1-18 3-22 12l-74 182c-20 50-29 109-29 139 0 26 3 42 7 60l13 63c-96 39-214 58-310 58s-214-19-310-58l13-63c4-18 7-34 7-60 0-30-9-89-29-139l-74-182c-4-9-13-11-22-12-13-2-31-16-31-39" style="stroke-width:2;stroke-linecap:butt;stroke-linejoin:miter;stroke:#fff;stroke-opacity:1;stroke-miterlimit:10;fill-rule:nonzero;fill:#fff;fill-opacity:1"/><path d="M54 339c0-23 16-39 39-39s39 16 39 39c0 5-1 13-3 17-2 5-3 9-3 13 0 6 3 13 9 20l90 117c12 16 24 32 39 32 17 0 23-18 23-35V311c0-11-2-26-17-33-11-5-18-20-18-31 0-20 14-41 37-41s41 15 41 39c0 11-4 22-11 28s-12 12-12 21c0 10 3 18 8 29l72 165c6 13 13 24 27 24 11 0 20-4 23-20l50-242c2-9 4-21 4-29 0-9 0-16-11-22-12-7-28-17-28-43s22-48 48-48 48 22 48 48-16 36-28 43c-11 6-11 13-11 22 0 8 2 20 4 29l50 242c3 16 12 20 23 20 14 0 21-11 27-24l72-165c5-11 8-19 8-29 0-9-5-15-12-21s-11-17-11-28c0-24 18-39 41-39s37 21 37 41c0 11-7 26-18 31-15 7-17 22-17 33v192c0 17 6 35 23 35 15 0 27-16 39-32l90-117c6-7 9-14 9-20 0-4-1-8-3-13-2-4-3-12-3-17 0-23 16-39 39-39s39 16 39 39-18 37-31 39c-9 1-18 3-22 12l-74 182c-20 50-29 109-29 139 0 26 3 42 7 60l13 63c-96 39-214 58-310 58s-214-19-310-58l13-63c4-18 7-34 7-60 0-30-9-89-29-139l-74-182c-4-9-13-11-22-12-13-2-31-16-31-39m16 0c0 13 10 23 23 23s23-10 23-23-10-23-23-23-23 10-23 23m69 86 39 95c14 8 31 15 46 18l2-4-85-110zm47 115c12 22 23 50 27 73 90-16 177-25 287-25s197 9 287 25c4-23 15-51 27-73-34 14-48 18-74 18-36 0-58-23-74-58-24 23-44 32-80 32s-66-24-86-50c-20 26-50 50-86 50s-56-9-80-32c-16 35-38 58-74 58-26 0-40-4-74-18m24 277c11 4 23 8 35 12 81-37 149-45 255-45s174 8 255 45c12-4 24-8 35-12-56-38-126-61-290-61s-234 23-290 61m9-159c0 16 4 22 13 31 93-16 164-27 268-27s175 11 268 27c9-9 13-15 13-31 0-9-2-14-8-22-112-19-177-24-273-24s-161 5-273 24c-6 8-8 13-8 22m8 118 2 2c55-17 123-48 123-60s-70-16-119-16c0 28 0 49-6 74m41-531c0 13 10 23 23 23s23-10 23-23-10-23-23-23-23 10-23 23m7 592c65 18 142 31 225 31s160-13 225-31c-77-28-131-33-225-33s-148 5-225 33m29-332c13-11 19-29 22-45 9 11 30 29 42 29l-62-141-2 1zm122 205c0 12 54 28 74 28s74-16 74-28-54-30-74-30-74 18-74 30m30-220c16-8 34-29 44-45 10 16 28 37 44 45l-43-210h-2zm12-334c0 18 14 32 32 32s32-14 32-32-14-32-32-32-32 14-32 32m164 333c12 0 33-18 42-29 3 16 9 34 22 45V349l-2-1zm16 229c0 12 68 43 123 60l2-2c-6-25-6-46-6-74-49 0-119 4-119 16m38-473c0 13 10 23 23 23s23-10 23-23-10-23-23-23-23 10-23 23m88 289 2 4c15-3 32-10 46-18l39-95-2-1zm110-195c0 13 10 23 23 23s23-10 23-23-10-23-23-23-23 10-23 23" style="stroke:none;fill-rule:nonzero;fill:#000;fill-opacity:1"/></svg>