<svg viewBox="0 0 1000 1000"><path d="M192 903c0-22 8-40 17-51v-98l75-100V287l-58-71V76c34-5 79-9 107-9l7 59h85V63c24-2 51-3 75-3s50 1 74 3v63h86l7-60c28 0 73 5 107 10v140l-58 71v367l75 100v98c9 11 17 29 17 51 0 10-1 20-4 31H196c-3-11-4-21-4-31" style="stroke-width:2;stroke-linecap:butt;stroke-linejoin:miter;stroke:#fff;stroke-opacity:1;stroke-miterlimit:10;fill-rule:nonzero;fill:#fff;fill-opacity:1"/><path d="M192 903c0-22 8-40 17-51v-98l75-100V287l-58-71V76c34-5 79-9 107-9l7 59h85V63c24-2 51-3 75-3s50 1 74 3v63h86l7-60c28 0 73 5 107 10v140l-58 71v367l75 100v98c9 11 17 29 17 51 0 10-1 20-4 31H196c-3-11-4-21-4-31m35-7c0 8 0 12 2 18h542c2-6 2-10 2-18s-4-16-7-20H234c-3 4-7 12-7 20m11-94c0 16 2 31 8 50h508c6-19 8-34 8-50 0-21-1-32-11-52H249c-10 20-11 31-11 52m12-601c86-6 178-11 250-11s164 5 250 11V97c-16-3-42-5-62-5l-8 58H550V86c-16-1-32-2-50-2s-34 1-50 2v64H320l-8-58c-20 0-46 2-62 5zm13 525h474l-40-52H303zm3-502 40 48c56-4 130-8 194-8s138 4 194 8l40-48c-86-6-162-10-234-10s-148 4-234 10m42 426h48v-64c-16 0-32 1-48 2zm0-86c36-2 74-4 112-4v-82c-40 2-79 4-112 6zm0-104q22.5-1.5 48-3v-85c-17 1-33 2-48 4zm0-108c33-4 72-6 112-8v-54c-40 2-79 4-112 6zm72 298h108v-66c-36 0-72 0-108 1zm0-194c35-2 73-4 108-4v-86c-35 0-73 2-108 4zm64 104h112v-83c-19-1-38-1-56-1s-37 0-56 1zm0-217c19-1 38-1 56-1s37 0 56 1v-54c-19-1-38-1-56-1s-37 0-56 1zm68 307h108v-65c-36-1-72-1-108-1zm0-198c35 0 73 2 108 4v-86c-35-2-73-4-108-4zm68 108c38 0 76 2 112 4v-80c-33-2-72-4-112-6zm0-216c40 2 79 4 112 8v-56c-33-2-72-4-112-6zm64 306h48v-62c-16-1-32-2-48-2zm0-193q25.5 1.5 48 3v-84c-15-2-31-3-48-4z" style="stroke:none;fill-rule:nonzero;fill:#000;fill-opacity:1"/></svg>