<svg xmlns="http://www.w3.org/2000/svg" width="1000pt" height="1000pt" viewBox="0 0 1000 1000"><path d="M106 432c0-80 73-150 153-150 63 0 97 11 155 44l4-4V122c0-22 4-26 26-26h112c22 0 26 4 26 26v200l4 4c58-33 92-44 155-44 80 0 153 70 153 150 0 70-24 104-54 142-28 35-39 54-49 81 6 9 9 17 9 29 0 13-3 23-7 33-5 11-9 24-9 34 0 8 0 13 1 20l11 71c-96 36-200 50-296 50s-200-14-296-50l11-71c1-7 1-12 1-20 0-10-4-23-9-34-4-10-7-20-7-33 0-12 3-20 9-29-10-27-20-44-48-79-32-40-55-69-55-144" style="stroke-width:2;stroke-linecap:butt;stroke-linejoin:miter;stroke:#fff;stroke-opacity:1;stroke-miterlimit:10;fill-rule:nonzero;fill:#fff;fill-opacity:1"/><path d="M106 432c0-80 73-150 153-150 63 0 97 11 155 44l4-4V122c0-22 4-26 26-26h112c22 0 26 4 26 26v200l4 4c58-33 92-44 155-44 80 0 153 70 153 150 0 70-24 104-54 142-28 35-39 54-49 81 6 9 9 17 9 29 0 13-3 23-7 33-5 11-9 24-9 34 0 8 0 13 1 20l11 71c-96 36-200 50-296 50s-200-14-296-50l11-71c1-7 1-12 1-20 0-10-4-23-9-34-4-10-7-20-7-33 0-12 3-20 9-29-10-27-20-44-48-79-32-40-55-69-55-144m18 4c0 54 20 94 50 130 17 21 35 48 48 77l14-7c-12-26-29-54-45-74-31-38-47-73-47-124 0-69 66-118 134-118 57 0 91 15 137 48l9-14c-46-31-90-52-155-52-73 0-145 57-145 134m38 2c0 34 9 60 27 85 10-7 26-11 37-11 14 0 21 1 32 7 4-32 20-64 37-82 18 13 41 36 53 67 12-9 25-14 47-14 29 0 69 21 87 70l5-2c-31-165-109-218-206-218-69 0-119 50-119 98m37 102c12 22 28 43 46 57 11 9 24 17 32 17 7 0 10-5 10-10 0-9-8-30-19-46-10-14-23-26-40-26-10 0-19 1-29 8m25 155c0 10 5 15 18 15 3 0 9-1 16-4 59-23 144-40 242-40s183 17 242 40c7 3 13 4 16 4 13 0 18-5 18-15 0-37-153-67-276-67s-276 30-276 67m2 129c15 5 32 10 50 15 84-31 137-39 224-39s140 8 224 39c18-5 35-10 50-15-97-44-165-55-274-55s-177 11-274 55m11-44c13 4 18 4 29 4 28 0 114-38 114-59 0-11-40-14-73-14-13 0-47 10-67 22 0 18 0 29-3 47m41-252c0 31 19 75 35 75 11 0 15-42 15-65s-10-52-30-65c-14 16-20 40-20 55m25 317c63 14 136 23 197 23s134-9 197-23c-73-22-119-29-197-29s-124 7-197 29m34-257c0 5 5 9 11 9 11 0 21-8 33-20 10-10 34-42 39-57-6-6-18-10-30-10-20 0-32 11-42 28-8 14-11 36-11 50m75-10c0 18 11 26 25 26s26-14 26-31c0-12-13-34-27-42-12 13-24 35-24 47m10 144c0 16 56 35 78 35s78-19 78-35-56-37-78-37-78 21-78 37m5-341c13 10 23 23 32 39h3c5-16 20-25 38-25s33 9 38 25h3c9-16 19-29 32-39l-11-15c-14 11-32 20-62 20s-48-9-62-20zm5-107c0 4 0 7 4 7 3 0 5-1 8-4 23-25 45-27 56-27s33 2 56 27c3 3 5 4 8 4 4 0 4-3 4-7v-42H432zm0-66 52-44-52-44zm14 112c0 30 24 54 54 54s54-24 54-54-24-54-54-54-54 24-54 54m7-104h93l-46-39zm0-104 47 39 46-39zm23 480c0 12 12 20 24 20s24-8 24-20-12-20-24-20-24 8-24 20m2-148c0 18 8 40 20 68h4c12-28 20-50 20-68 0-16-7-30-22-30s-22 14-22 30m35 114 5 2c18-49 58-70 87-70 22 0 35 5 47 14 12-31 35-54 53-67 17 18 33 50 37 82 11-6 18-7 32-7 11 0 27 4 37 11 18-25 27-51 27-85 0-48-50-98-119-98-97 0-175 53-206 218m2-394 52 44v-88zm22 409c0 17 12 31 26 31s25-8 25-26c0-12-12-34-24-47-14 8-27 30-27 42m39-219 9 14c46-33 80-48 137-48 68 0 134 49 134 118 0 51-16 86-47 124-16 20-33 48-45 74l14 7c13-29 31-56 48-77 30-36 50-76 50-130 0-77-72-134-145-134-65 0-109 21-155 52m4 166c5 15 29 47 39 57 12 12 22 20 33 20 6 0 11-4 11-9 0-14-3-36-11-50-10-17-22-28-42-28-12 0-24 4-30 10m40 205c0 21 86 59 114 59 11 0 16 0 29-4-3-18-3-29-3-47-20-12-54-22-67-22-33 0-73 3-73 14m52-187c0 23 4 65 15 65 16 0 35-44 35-75 0-15-6-39-20-55-20 13-30 42-30 65m41 66c0 5 3 10 10 10 8 0 21-8 32-17 18-14 34-35 46-57-10-7-19-8-29-8-17 0-30 12-40 26-11 16-19 37-19 46" style="stroke:none;fill-rule:nonzero;fill:#000;fill-opacity:1"/></svg>