<svg xmlns="http://www.w3.org/2000/svg" width="1000pt" height="1000pt" viewBox="0 0 1000 1000"><path d="M84 619c0-58 16-79 34-101 21-26 43-58 60-92 16-32 33-62 54-90 10-56 24-95 44-130l-6-47c-1-9-2-23-2-33 0-8 2-26 15-26 18 0 52 50 65 74h24c5-34 15-78 30-78 14 0 23 19 30 36 8 20 14 29 30 43 13 11 19 16 30 16 7 0 13 0 19-1s13-2 21-2c20 0 50 4 50 11v19c47 5 93 15 93 23 0 5-17 11-29 15v3c28 5 100 29 100 42 0 8-22 11-39 13l-1 2c30 12 94 69 94 85 0 8-22 10-37 10l-1 3c28 20 82 80 82 96 0 3-1 4-4 4-4 0-11-1-17-2-7-2-15-3-20-3l-2 3c25 24 73 76 73 96 0 2-1 4-5 4s-11-2-19-5c-7-3-15-6-20-6l-1 2c22 23 53 78 53 97 0 3-2 5-5 5s-9-1-16-5c-5-3-12-6-16-7l-1 2c26 37 50 80 50 96 0 2-1 4-5 4s-11-2-19-5c-5-2-13-4-17-5l-1 2c16 21 31 52 32 79H286c0-74 34-123 86-182 45-51 63-79 76-148l-6-4c-26 17-52 22-72 22-16 22-24 28-50 46-25 17-41 36-52 66-12 33-31 64-63 64-29 0-40-8-50-21-36-13-71-35-71-90" style="stroke-width:2;stroke-linecap:butt;stroke-linejoin:miter;stroke:#fff;stroke-opacity:1;stroke-miterlimit:10;fill-rule:nonzero;fill:#fff;fill-opacity:1"/><path d="M84 619c0-58 16-79 34-101 21-26 43-58 60-92 16-32 33-62 54-90 10-56 24-95 44-130l-6-47c-1-9-2-23-2-33 0-8 2-26 15-26 18 0 52 50 65 74h24c5-34 15-78 30-78 14 0 23 19 30 36 8 20 14 29 30 43 13 11 19 16 30 16 7 0 13 0 19-1s13-2 21-2c20 0 50 4 50 11v19c47 5 93 15 93 23 0 5-17 11-29 15v3c28 5 100 29 100 42 0 8-22 11-39 13l-1 2c30 12 94 69 94 85 0 8-22 10-37 10l-1 3c28 20 82 80 82 96 0 3-1 4-4 4-4 0-11-1-17-2-7-2-15-3-20-3l-2 3c25 24 73 76 73 96 0 2-1 4-5 4s-11-2-19-5c-7-3-15-6-20-6l-1 2c22 23 53 78 53 97 0 3-2 5-5 5s-9-1-16-5c-5-3-12-6-16-7l-1 2c26 37 50 80 50 96 0 2-1 4-5 4s-11-2-19-5c-5-2-13-4-17-5l-1 2c16 21 31 52 32 79H286c0-74 34-123 86-182 45-51 63-79 76-148l-6-4c-26 17-52 22-72 22-16 22-24 28-50 46-25 17-41 36-52 66-12 33-31 64-63 64-29 0-40-8-50-21-36-13-71-35-71-90m23-18c0 60 13 84 49 84 5 0 12-1 12-9 0-1 0-4-1-7s-2-6-2-9c0-11 13-39 28-39 8 0 11 8 11 12 0 9-6 19-13 29-6 9-10 25-10 31 0 10 8 15 15 15 13 0 22-4 30-16 6-10 7-18 8-27 1-13 10-24 27-36 11-8 24-19 30-27 11-14 19-21 39-31 18-9 18-24 18-35 0-2-1-6-2-9q-3-6-3-12c0-4 2-8 6-8 9 0 14 9 16 17 3 12 9 18 19 18 32 0 51-22 70-50 21-30 26-54 26-90 0-28 3-67 20-67 12 0 14 17 14 26 0 29-10 67-24 99l6 4c14-10 18-19 22-40 2-11 7-28 18-28 8 0 14 6 14 12 0 26-32 66-56 92l8 8c10-14 21-28 30-28s12 5 12 11c0 12-18 25-34 34s-28 13-46 13c-5 35-9 58-23 84-15 28-41 60-68 92-43 51-57 80-63 128h514c-22-368-118-573-342-623-10 1-21 4-34 9l-18-63c-3-9-7-20-17-20-6 0-7 10-8 20l-3 58c0 6-6 8-15 9-5 1-17 6-20 15-13 0-20 1-23 9-2 5-7 13-17 13s-17-5-17-13c0-19 7-26 24-42l-6-6c-21 8-50 37-58 70-12 49-16 62-32 84s-28 42-36 59c-11 24-34 66-52 86-22 25-43 49-43 94m15-25c0-9 2-11 8-17s13-17 18-29c6-14 13-24 17-24q9 0 9 9c0 11-16 36-36 54v2c26 0 30 22 30 38 0 20-12 34-26 34-4 0-7-4-7-8s4-8 7-11c5-5 6-12 6-17 0-11-5-18-17-21-5-1-9-4-9-10m132-163c0-46 44-85 83-85 38 0 49 7 49 19 0 6-3 10-10 10-3 0-8-1-11-4-2-2-6-5-11-5s-8 2-12 5c5 7 6 18 6 22 0 19-5 35-30 35-16 0-26-16-29-32h-2c-10 5-15 20-16 27q-3 15-9 15c-3 0-8-1-8-7m42-265 7 40 15-7-18-35zm4 229c0 8 7 12 14 12 9 0 14-6 14-17 0-6-3-14-12-14-13 0-16 10-16 19" style="stroke:none;fill-rule:nonzero;fill:#000;fill-opacity:1"/></svg>