<svg viewBox="0 0 1000 1000"><path d="M62 910c38-42 92-90 158-90 32 0 71 8 92 16 22 8 58 18 75 18s25-3 33-12v-4c-37-10-71-24-106-52 12-35 20-64 20-105 0-23-10-47-28-81s-36-95-36-146c0-172 153-296 197-330-16-14-18-30-18-37 0-19 11-35 36-35 23 0 33 17 33 31 0 17-8 30-20 39 15 12 34 28 47 40 13-12 21-22 31-35-11-9-24-22-24-40 0-19 13-35 33-35 22 0 33 16 33 30 0 18-11 31-20 41 52 51 136 146 136 278 0 64-17 119-39 175-13 34-25 69-25 105 0 37 6 68 16 105-26 24-54 39-108 51v3c10 10 23 14 38 14 30 0 47-4 72-14 34-14 66-20 92-20 74 0 132 51 156 80l-6 9c-16-11-33-19-58-23l-2 3c17 14 29 37 36 51l-9 8c-29-32-57-62-123-62-30 0-61 8-93 17-29 8-48 13-81 13-47 0-77-27-100-62h-4c-19 32-46 62-84 62-32 0-56-4-84-13-21-7-57-19-90-19-60 0-88 24-128 64l-7-6c9-20 15-31 30-49l-3-3c-17 5-37 12-59 29l-9-9" style="stroke-width:2;stroke-linecap:butt;stroke-linejoin:miter;stroke:#fff;stroke-opacity:1;stroke-miterlimit:10;fill-rule:nonzero;fill:#fff;fill-opacity:1"/><path d="M62 910c38-42 92-90 158-90 32 0 71 8 92 16 22 8 58 18 75 18s25-3 33-12v-4c-37-10-71-24-106-52 12-35 20-64 20-105 0-23-10-47-28-81s-36-95-36-146c0-172 153-296 197-330-16-14-18-30-18-37 0-19 11-35 36-35 23 0 33 17 33 31 0 17-8 30-20 39 15 12 34 28 47 40 13-12 21-22 31-35-11-9-24-22-24-40 0-19 13-35 33-35 22 0 33 16 33 30 0 18-11 31-20 41 52 51 136 146 136 278 0 64-17 119-39 175-13 34-25 69-25 105 0 37 6 68 16 105-26 24-54 39-108 51v3c10 10 23 14 38 14 30 0 47-4 72-14 34-14 66-20 92-20 74 0 132 51 156 80l-6 9c-16-11-33-19-58-23l-2 3c17 14 29 37 36 51l-9 8c-29-32-57-62-123-62-30 0-61 8-93 17-29 8-48 13-81 13-47 0-77-27-100-62h-4c-19 32-46 62-84 62-32 0-56-4-84-13-21-7-57-19-90-19-60 0-88 24-128 64l-7-6c9-20 15-31 30-49l-3-3c-17 5-37 12-59 29zm57-35 2 4c11-5 23-7 35-7l2 4c-6 6-15 16-19 23l4 3c33-24 63-32 93-32 34 0 65 8 90 16s54 16 86 16 52-24 70-55c-16 0-30-2-44-4-12 16-20 25-48 25-24 0-56-10-84-19-26-9-64-15-86-15-43 0-73 19-101 41m175-417c0 69 21 118 46 167 54-22 115-29 160-29 65 0 100 9 159 25 7-32 11-85 11-114 0-165-50-264-188-371-106 93-188 174-188 322m44 323c36 28 96 47 162 47s126-19 162-47c-44-24-100-42-162-42s-118 18-162 42m5-21 3 1c43-40 48-50 48-54 0-6-16-11-40-16-2 23-4 46-11 69m4-114c3 10 5 20 5 32 52-22 89-30 148-30s96 8 148 30c0-12 2-22 5-32-59-20-93-26-153-26s-94 6-153 26m1-238v-31c0-15 7-25 58-29 38-3 38-4 38-19v-89c0-9 4-20 19-20h38c15 0 19 11 19 20v89c0 15 0 16 38 19 51 4 58 14 58 29v31c0 8-5 20-19 20-6 0-23-1-38-4-14-3-23-4-33-4-6 0-6 4-6 10v107c0 7-4 19-15 19h-46c-11 0-15-12-15-19V430c0-6 0-10-6-10-10 0-19 1-33 4-15 3-32 4-38 4-14 0-19-12-19-20m16-17c0 11 1 19 11 19 6 0 17-1 32-4 14-3 30-5 38-5 12 0 15 8 15 17v111c0 12 2 15 22 15s22-3 22-15V418c0-9 3-17 15-17 8 0 24 2 38 5 15 3 26 4 32 4 10 0 11-8 11-19 0-17-5-24-53-27-35-2-43-6-43-19v-96c0-16-8-17-22-17s-22 1-22 17v96c0 13-8 17-43 19-48 3-53 10-53 27m76 305c0 6 50 30 60 30s60-24 60-30c0-8-48-38-60-38s-60 30-60 38m27-610c0 11 7 18 16 26 11-8 16-14 16-27 0-9-6-15-15-15-10 0-17 6-17 16m46 760c19 30 47 56 84 56 29 0 58-5 87-14 27-9 61-16 92-16 33 0 60 6 82 22l1-1c-1-6-11-18-16-22l1-2c13 0 29 1 38 3l1-2c-23-18-59-36-103-36-29 0-54 6-80 16s-50 18-84 18c-24 0-42-6-60-25-15 3-25 3-43 3m43-674c103 100 134 189 134 338h5c11-38 15-69 15-116 0-97-43-172-123-257-11 16-19 24-31 35m14-86c0 10 6 18 17 27 9-10 13-16 13-27 0-8-5-16-15-16-9 0-15 7-15 16m36 621c0 4 5 14 48 54l3-1c-7-23-9-46-11-69-24 5-40 10-40 16" style="stroke:none;fill-rule:nonzero;fill:#000;fill-opacity:1"/></svg>