<svg viewBox="0 0 1000 1000"><path d="M278 844c0-65 28-128 84-172 35-27 51-57 51-82 0-12-9-19-21-28-13-10-42-34-42-76 0-30 13-58 34-78 19-18 36-43 36-60 0-10-6-13-13-13h-40c-10 0-10-4-10-8s4-10 7-13l81-86c3-3 7-7 7-13s-4-11-10-16c-9-8-16-24-16-43 0-35 26-70 74-70s74 35 74 70c0 19-7 35-16 43-6 5-10 10-10 16s4 10 7 13l81 86c3 3 7 9 7 13s0 8-10 8h-40c-7 0-13 3-13 13 0 17 17 42 36 60 21 20 34 48 34 78 0 42-29 66-42 76-12 9-21 16-21 28 0 25 16 55 51 82 56 44 84 107 84 172 0 8 0 13-2 22H280c-2-9-2-14-2-22" style="stroke-width:2;stroke-linecap:butt;stroke-linejoin:miter;stroke:#fff;stroke-opacity:1;stroke-miterlimit:10;fill-rule:nonzero;fill:#fff;fill-opacity:1"/><path d="M278 844c0-65 28-128 84-172 35-27 51-57 51-82 0-12-9-19-21-28-13-10-42-34-42-76 0-30 13-58 34-78 19-18 36-43 36-60 0-10-6-13-13-13h-40c-10 0-10-4-10-8s4-10 7-13l81-86c3-3 7-7 7-13s-4-11-10-16c-9-8-16-24-16-43 0-35 26-70 74-70s74 35 74 70c0 19-7 35-16 43-6 5-10 10-10 16s4 10 7 13l81 86c3 3 7 9 7 13s0 8-10 8h-40c-7 0-13 3-13 13 0 17 17 42 36 60 21 20 34 48 34 78 0 42-29 66-42 76-12 9-21 16-21 28 0 25 16 55 51 82 56 44 84 107 84 172 0 8 0 13-2 22H280c-2-9-2-14-2-22m36-51c0 16 7 37 23 37h326c16 0 23-21 23-37 0-43-20-72-51-97-39-32-62-58-72-108H437c-10 50-33 76-72 108-31 25-51 54-51 97m60-307c0 43 39 78 84 78h84c45 0 84-35 84-78 0-28-8-47-36-74-19-19-30-43-37-74H447c-7 31-18 55-37 74-28 27-36 46-36 74m42-185c0 10 13 13 23 13h122c10 0 23-3 23-13 0-5-4-11-9-17l-54-59c-8 1-13 1-21 1s-13 0-21-1l-54 59c-5 6-9 12-9 17m34-145c0 28 22 50 50 50s50-22 50-50-22-50-50-50-50 22-50 50" style="stroke:none;fill-rule:nonzero;fill:#000;fill-opacity:1"/></svg>